<svg id="svg" version="1.1" xmlns="http://www.w3.org/2000/svg" xmlns:xlink="http://www.w3.org/1999/xlink" width="400" height="394.74548440065684" viewBox="0, 0, 400,394.74548440065684"><g id="svgg"><path id="path0" d="M340.558 39.150 C 334.571 42.585,258.977 84.697,209.524 112.147 C 191.281 122.273,171.656 133.225,165.913 136.485 L 155.471 142.413 160.002 145.312 C 162.493 146.907,170.443 151.707,177.668 155.979 C 224.523 183.685,220.242 180.503,215.846 184.350 C 214.266 185.732,199.414 199.282,182.841 214.459 C 138.360 255.196,137.851 255.640,136.821 254.610 C 136.633 254.422,134.466 248.413,132.005 241.256 C 127.059 226.874,115.337 193.847,112.833 187.239 C 111.555 183.866,111.132 183.271,110.732 184.283 C 106.439 195.150,83.810 257.088,67.314 303.120 C 62.006 317.931,55.323 336.373,52.462 344.101 C 49.602 351.830,47.410 358.302,47.592 358.484 C 47.959 358.851,85.116 353.101,193.103 335.966 C 232.660 329.689,279.792 322.248,297.840 319.429 C 330.391 314.346,330.627 314.298,327.025 313.499 C 323.398 312.695,290.143 306.967,238.095 298.184 C 222.923 295.623,209.537 293.355,208.350 293.144 C 205.250 292.592,205.577 292.192,216.787 282.802 C 222.365 278.130,236.989 265.717,249.284 255.216 C 261.579 244.716,289.583 220.932,311.517 202.363 C 333.450 183.794,351.396 168.406,351.396 168.166 C 351.396 167.927,344.376 164.296,335.796 160.099 C 271.790 128.781,270.434 128.094,271.066 127.267 C 274.789 122.389,287.816 106.548,313.623 75.517 C 347.780 34.445,346.399 36.123,346.057 36.130 C 345.923 36.132,343.448 37.491,340.558 39.150 " stroke="none" fill-rule="evenodd"></path></g></svg>
