<svg id="svg" version="1.1" xmlns="http://www.w3.org/2000/svg" xmlns:xlink="http://www.w3.org/1999/xlink" width="400" height="398.6733001658375" viewBox="0, 0, 400,398.6733001658375"><g id="svgg"><path id="path0" d="M105.390 37.519 C 68.194 44.252,41.135 83.011,48.051 119.651 C 52.417 142.788,64.040 159.508,83.139 170.126 C 85.632 171.512,87.831 173.062,88.026 173.572 C 88.500 174.806,82.777 267.397,81.873 273.129 C 81.603 274.839,80.757 275.809,77.749 277.857 C 39.263 304.051,59.147 363.765,105.783 362.045 C 147.466 360.508,166.116 308.007,134.570 281.005 L 131.924 278.740 133.621 255.622 C 134.554 242.907,135.928 223.400,136.674 212.272 C 139.336 172.540,138.182 177.043,146.600 173.549 L 152.239 171.209 171.421 190.360 L 190.604 209.512 187.912 216.365 C 173.875 252.100,180.317 285.343,206.278 311.137 C 255.067 359.610,339.567 332.387,350.551 264.658 C 361.499 197.152,292.479 144.108,230.729 172.571 L 226.175 174.670 209.739 158.148 C 200.700 149.060,191.606 139.812,189.530 137.595 L 185.757 133.565 187.062 129.853 C 204.627 79.877,158.635 27.881,105.390 37.519 " stroke="none" fill-rule="evenodd"></path></g></svg>
