<svg id="svg" version="1.1" xmlns="http://www.w3.org/2000/svg" xmlns:xlink="http://www.w3.org/1999/xlink" width="400" height="392.1696574225122" viewBox="0, 0, 400,392.1696574225122"><g id="svgg"><path id="path0" d="M226.754 57.409 C 221.270 58.194,217.270 59.640,210.154 63.409 L 203.996 66.672 199.062 66.235 C 181.612 64.691,167.371 71.871,151.625 90.153 L 146.196 96.457 139.819 98.551 C 101.521 111.126,60.679 164.955,28.306 245.520 L 24.174 255.804 28.990 265.749 C 60.648 331.117,106.591 351.405,157.971 322.706 L 164.622 318.991 168.319 320.650 C 182.635 327.075,208.063 326.633,239.478 319.413 C 268.012 312.855,318.613 295.620,340.272 285.083 C 352.700 279.036,359.973 264.396,360.675 244.008 C 361.098 231.743,358.806 227.542,347.210 219.326 C 344.007 217.056,329.877 216.148,328.247 218.108 C 327.874 218.556,327.055 219.567,326.427 220.353 C 325.799 221.139,321.909 223.606,317.781 225.835 C 299.439 235.742,289.369 244.612,284.173 255.436 L 281.127 261.784 283.793 269.562 C 285.260 273.839,286.460 277.519,286.460 277.739 C 286.460 278.179,220.763 277.395,203.589 276.750 L 192.822 276.346 192.734 263.948 C 192.538 236.587,182.297 200.425,164.037 162.621 C 156.560 147.141,156.531 147.045,160.575 151.387 C 184.262 176.819,205.436 215.030,210.388 241.285 C 215.235 266.977,231.229 273.613,251.761 258.449 C 257.923 253.898,258.993 247.665,255.765 235.118 C 245.318 194.515,229.563 155.704,211.009 124.859 C 207.589 119.172,204.477 113.931,204.094 113.214 L 203.399 111.909 204.869 113.214 C 205.677 113.931,209.630 118.923,213.653 124.307 C 235.746 153.872,249.689 175.758,261.659 199.664 C 274.645 225.597,293.132 230.857,309.054 213.148 C 315.284 206.219,315.881 202.455,312.535 191.201 C 305.572 167.784,289.292 136.179,274.797 117.938 C 268.742 110.318,271.055 111.867,279.678 121.207 C 306.506 150.264,319.929 171.532,326.743 195.780 C 330.909 210.603,340.018 215.652,353.810 210.783 C 365.874 206.525,369.216 201.547,373.317 181.729 C 377.681 160.642,377.448 160.098,351.321 130.454 C 340.142 117.770,331.148 107.671,301.104 74.070 C 290.753 62.495,277.726 59.325,262.492 64.676 C 255.844 67.011,256.094 67.043,252.534 63.426 C 247.131 57.938,237.985 55.803,226.754 57.409 M115.361 193.148 C 135.101 248.281,137.317 283.850,121.013 283.850 C 118.272 283.850,116.230 282.786,109.788 278.002 C 107.171 276.058,107.170 276.103,109.916 271.931 C 111.153 270.053,112.988 266.166,113.994 263.295 L 115.824 258.075 115.799 239.804 C 115.772 220.278,115.005 211.232,111.841 193.148 C 109.365 178.991,109.371 179.038,110.130 179.772 C 110.501 180.131,112.855 186.150,115.361 193.148 " stroke="none" fill-rule="evenodd"></path></g></svg>
