<svg id="svg" version="1.1" xmlns="http://www.w3.org/2000/svg" xmlns:xlink="http://www.w3.org/1999/xlink" width="400" height="394.74548440065684" viewBox="0, 0, 400,394.74548440065684"><g id="svgg"><path id="path0" d="M209.712 25.452 C 195.319 48.648,168.512 91.141,163.511 98.684 L 158.396 106.400 170.651 118.060 C 186.651 133.284,199.690 146.013,199.490 146.214 C 199.296 146.408,175.793 141.132,158.520 137.017 C 151.601 135.368,139.187 132.522,130.934 130.691 C 104.150 124.749,55.147 113.578,54.095 113.174 C 52.574 112.591,52.948 113.245,76.848 153.038 C 98.073 188.377,112.972 213.851,112.972 214.802 C 112.972 215.070,111.820 217.622,110.413 220.473 C 106.597 228.200,79.861 287.416,71.503 306.652 L 70.254 309.527 71.744 308.564 C 91.799 295.598,216.272 218.680,216.626 219.035 C 216.922 219.330,210.335 231.937,203.408 244.335 C 196.202 257.233,177.997 291.604,177.997 292.312 C 177.997 292.980,219.736 354.368,231.750 371.370 C 237.390 379.351,238.762 380.932,239.159 379.909 C 239.427 379.218,240.560 369.934,241.677 359.278 C 251.257 267.821,256.128 224.991,256.862 225.740 C 257.149 226.033,262.112 240.415,267.891 257.699 C 273.670 274.984,278.588 289.316,278.821 289.549 C 279.222 289.950,345.543 291.129,345.930 290.742 C 346.163 290.509,328.629 253.013,311.092 216.244 C 303.637 200.613,297.537 187.638,297.537 187.410 C 297.537 186.997,304.584 176.037,320.903 151.070 C 325.626 143.844,329.468 137.931,329.441 137.931 C 329.415 137.931,315.947 137.051,299.514 135.976 L 269.636 134.021 266.451 137.125 C 264.699 138.833,260.443 143.425,256.993 147.330 C 253.543 151.236,250.496 154.191,250.222 153.899 C 246.544 149.964,238.595 115.794,218.965 19.540 C 218.320 16.379,217.602 13.793,217.369 13.793 C 217.136 13.793,213.690 19.039,209.712 25.452 " stroke="none" fill-rule="evenodd"></path></g></svg>
